<?xml version="1.0" encoding="utf-8"?>
<!-- Generator: Adobe Illustrator 16.0.0, SVG Export Plug-In . SVG Version: 6.00 Build 0)  -->
<!DOCTYPE svg PUBLIC "-//W3C//DTD SVG 1.1//EN" "http://www.w3.org/Graphics/SVG/1.1/DTD/svg11.dtd">
<svg version="1.1" id="Layer_1" xmlns="http://www.w3.org/2000/svg" xmlns:xlink="http://www.w3.org/1999/xlink" x="0px" y="0px"
	 width="130px" height="120px" viewBox="0 0 130 120" enable-background="new 0 0 130 120" xml:space="preserve">
<g id="Your_Icon_1_">
	<path fill="#FFFFFF" d="M25.166,41.234v5.943c0,0.59,0.3,1.924,0.446,2.223c0.146,0.451,0.893,1.777,1.632,2.967
		c0.89,1.043,0.299,1.787,0.15,2.521c-0.295,0.746-0.44,1.933-0.44,2.676v8.319c0,0.447,0.44,0.59,0.889,0.59l-0.149,2.08
		c0.741,0,1.484-0.289,2.228-0.289c0.59-0.146,1.189-0.609,1.779-0.748c-0.299-0.596-0.74-1.186-1.335-1.479
		c-0.444-0.154-0.146-0.598-0.146-0.598c0.146-2.523,0.441-5.053,0.74-7.576c0,0,0-1.043,0.74-1.632
		c0.744-0.598,2.078-1.487,2.078-1.487s0.449-0.438,0.745-0.153c0.294,0.153,0.294,0.451,0.294,0.752
		c0.154,0.291,1.043,5.642,1.043,5.642s0.893,3.857,1.038,4.31c0.15,0.436,0.15,0.436,0.591,0.436c0.452,0.154,0.748,0,0.897,0.447
		c0.145,0.441,0.291,1.195,0.291,1.195l0.3,1.035c0.449-0.445,1.188,0,1.636-0.291c0.441-0.154,0.591-0.307,1.039-0.459
		c0-0.439-0.299-1.039-0.299-1.184c-0.15-0.438-0.599-0.438-0.74-0.59v-0.445c-0.299-1.641-0.593-3.42-1.046-5.2
		c0-1.776,0-3.563-0.142-5.495c0.142,0-0.149-3.268,2.078-4.456c1.929-0.889,2.673,0,4.156,0.3
		c1.637,0.298,6.092,1.486,13.069,1.486c6.978,0,7.722-0.896,9.054-0.598c0.891,0.3,1.638,1.49,2.527,2.379
		c0.889,1.035,0.889,1.931,0.889,2.377c0,0.445-0.595,3.567-0.738,4.153c-0.449,1.334-0.449,5.192-0.449,5.192
		c0.299,0.154,0.593,0.307,1.039,0.459c0,0.582,0,1.336,0.148,2.08c0.596,0.291,1.484,0.436,2.078,0.436s1.193-0.742,1.783-1.035
		c-0.146-0.742-0.89-2.223-1.189-2.674c-0.295-0.6-0.146-0.746-0.146-0.891c0,0,0-1.787,0.146-2.377c0-0.447,0.6-3.112,0.743-3.709
		c0.3-0.6,0.745-2.232,1.335-2.976c0.743-0.583,1.488-0.882,1.488-0.882c0.3,2.813,0.3,10.088,0.3,10.834
		c0,0.596,0.591,0.889,0.888,1.043c0.445,0.152,0.889,1.033,1.039,1.771h3.707c-0.141-1.037-0.59-2.662-0.59-2.662
		s-1.334-1.643-1.334-1.787c-0.154-0.146-0.154-0.59-0.154-0.742c0.154,0,0.598-6.678,0.598-6.978c0-0.298,0.295-2.377,0.891-3.122
		c0.59-0.734,1.776-1.188,2.376-1.48c0.443-0.296,2.819-1.786,3.416-2.673c0.737-0.89,2.077-2.823,2.966-4.756
		c0.748-1.778,2.229-5.343,2.673-7.122c0.448-1.788,1.343-5.044,1.343-6.08c0.146-1.051,0.445-4.018,0.445-4.617
		c0-0.598,0.299-1.479,0.738-1.777c0.596-0.299,1.34-0.447,1.488-0.447c0.295,0,0.74,0.3,1.338,0.447
		c0.74,0.144,4.303,1.333,4.748,1.479h0.896c0,0,0.441-0.146,0.591-0.146c0.146-0.154,0.743-0.89,1.188-1.034
		c0.444-0.156,1.484-0.3,1.631-0.745c0.152-0.298,0.447-0.453,0.447-0.888c0-0.3-0.295-1.786-0.594-2.378
		c-0.74-1.188-2.373-3.419-3.121-4.155c-0.595-0.896-3.117-3.719-3.857-4.3c-0.748-0.607-2.527-2.233-3.414-2.531
		c-0.745-0.298-1.633-0.744-2.823-1.042c-1.188-0.146-1.637,0-1.637,0s-0.44-1.343-0.74-1.78c-0.298-0.443-1.337-1.343-1.776-1.777
		c-0.6-0.445-1.343-0.743-1.788-0.445c-0.444,0.445-0.444,1.035-0.146,1.778c0.447,0.59,0.591,1.626,0.591,1.626
		s-4.304,2.531-5.344,3.274c-3.411,2.224-5.79,5.635-7.72,5.934c-1.93,0.299-2.967,0.156-4.307,0.156
		c-8.904-0.453-27.617-1.343-30.144-1.343c-2.676,0-5.194-0.154-6.679,0.306c-1.488,0.583-6.241,2.224-8.763,5.636
		c-2.523,3.274-4.01,6.831-3.857,9.653c0.291,2.814,1.034,3.711,1.185,4.309c0.149,0.59,0.892,1.479,0.892,3.267L25.166,41.234z"/>
</g>
<text transform="matrix(1 0 0 1 19.3896 85)"><tspan x="0" y="0" fill="#FFFFFF" font-family="'Marmelad-Regular'" font-size="24">Solängs</tspan><tspan x="0.984" y="28" fill="#FFFFFF" font-family="'Marmelad-Regular'" font-size="24">Fårgård</tspan></text>
</svg>
