<?xml version="1.0" encoding="utf-8"?>
<!-- Generator: Adobe Illustrator 16.0.0, SVG Export Plug-In . SVG Version: 6.00 Build 0)  -->
<!DOCTYPE svg PUBLIC "-//W3C//DTD SVG 1.1//EN" "http://www.w3.org/Graphics/SVG/1.1/DTD/svg11.dtd">
<svg version="1.1" id="Layer_1" xmlns="http://www.w3.org/2000/svg" xmlns:xlink="http://www.w3.org/1999/xlink" x="0px" y="0px"
	 width="55px" height="41.223px" viewBox="22.502 29.391 55 41.223" enable-background="new 22.502 29.391 55 41.223"
	 xml:space="preserve">
<g id="Captions">
</g>
<g id="Your_Icon">
	<path fill="#FFFFFF" d="M76.168,51.56c0-1.141,0.475-1.709,0.57-2.086c0.096-0.382,0.57-0.955,0.756-2.752
		c0.099-1.802-0.852-4.073-2.463-6.164c-1.609-2.179-4.646-3.227-5.596-3.598c-0.947-0.294-2.556-0.196-4.265-0.196
		c-1.614,0-13.563,0.568-19.249,0.857c-0.855,0-1.518,0.093-2.75-0.099c-1.232-0.191-2.751-2.37-4.93-3.79
		c-0.664-0.475-3.412-2.091-3.412-2.091s0.092-0.661,0.377-1.038c0.191-0.475,0.191-0.852-0.093-1.136
		c-0.284-0.191-0.759,0-1.142,0.284c-0.281,0.278-0.944,0.852-1.135,1.136c-0.191,0.279-0.473,1.136-0.473,1.136
		s-0.286-0.093-1.045,0c-0.76,0.191-1.327,0.475-1.803,0.666c-0.566,0.191-1.703,1.229-2.181,1.616
		c-0.473,0.372-2.083,2.174-2.463,2.747c-0.478,0.469-1.521,1.894-1.993,2.653c-0.19,0.377-0.379,1.327-0.379,1.518
		c0,0.279,0.188,0.377,0.285,0.568c0.094,0.284,0.758,0.376,1.042,0.475c0.284,0.093,0.666,0.562,0.759,0.661
		c0.096,0,0.377,0.093,0.377,0.093h0.572c0.285-0.093,2.56-0.852,3.032-0.945c0.382-0.093,0.666-0.285,0.854-0.285
		c0.095,0,0.57,0.094,0.95,0.285c0.28,0.191,0.472,0.753,0.472,1.136c0,0.382,0.191,2.276,0.284,2.948
		c0,0.661,0.571,2.742,0.857,3.883c0.284,1.136,1.229,3.412,1.707,4.548c0.567,1.234,1.423,2.469,1.894,3.037
		c0.381,0.566,1.898,1.518,2.182,1.707c0.383,0.187,1.141,0.477,1.518,0.945c0.38,0.476,0.568,1.803,0.568,1.993
		c0,0.191,0.283,4.456,0.382,4.456c0,0.098,0,0.381-0.099,0.475c0,0.092-0.852,1.141-0.852,1.141S39,69.38,38.91,70.041h2.367
		c0.096-0.471,0.379-1.033,0.663-1.131c0.19-0.099,0.567-0.285,0.567-0.666c0-0.476,0-5.121,0.191-6.918c0,0,0.476,0.19,0.95,0.562
		c0.377,0.475,0.661,1.518,0.853,1.9c0.092,0.382,0.475,2.084,0.475,2.369c0.093,0.377,0.093,1.518,0.093,1.518
		c0,0.093,0.096,0.186-0.093,0.568c-0.191,0.288-0.666,1.233-0.76,1.708c0.377,0.187,0.76,0.661,1.139,0.661
		c0.38,0,0.947-0.093,1.327-0.278c0.095-0.476,0.095-0.956,0.095-1.328c0.285-0.098,0.473-0.195,0.664-0.294
		c0,0,0-2.463-0.287-3.314c-0.092-0.375-0.472-2.368-0.472-2.652c0-0.285,0-0.857,0.567-1.519c0.568-0.567,1.046-1.327,1.614-1.519
		c0.851-0.19,1.326,0.382,5.781,0.382c4.456,0,7.301-0.759,8.346-0.949c0.947-0.191,1.423-0.759,2.653-0.191
		c1.423,0.759,1.236,2.845,1.327,2.845c-0.091,1.234-0.091,2.375-0.091,3.51c-0.289,1.137-0.477,2.272-0.668,3.32v0.284
		c-0.09,0.098-0.377,0.098-0.473,0.377c0,0.093-0.191,0.476-0.191,0.755c0.287,0.098,0.383,0.195,0.664,0.294
		c0.287,0.186,0.758-0.099,1.045,0.186l0.191-0.661c0,0,0.093-0.48,0.186-0.764c0.096-0.285,0.285-0.187,0.573-0.285
		c0.282,0,0.282,0,0.378-0.278c0.092-0.289,0.662-2.752,0.662-2.752s0.568-3.417,0.666-3.603c0-0.192,0-0.383,0.188-0.48
		c0.188-0.182,0.476,0.098,0.476,0.098s0.852,0.568,1.326,0.95c0.473,0.376,0.473,1.042,0.473,1.042
		c0.191,1.611,0.381,3.227,0.473,4.838c0,0,0.191,0.283-0.092,0.382c-0.381,0.187-0.662,0.563-0.854,0.944
		c0.377,0.088,0.76,0.383,1.137,0.477c0.475,0,0.949,0.186,1.422,0.186l-0.095-1.328c0.286,0,0.567-0.092,0.567-0.377v-5.312
		c0-0.475-0.093-1.232-0.281-1.709c-0.096-0.469-0.473-0.943,0.096-1.609c0.473-0.76,0.949-1.606,1.043-1.895
		c0.093-0.191,0.284-1.043,0.284-1.42v-3.795L76.168,51.56z"/>
</g>
</svg>
