<?xml version="1.0" encoding="utf-8"?>
<!-- Generator: Adobe Illustrator 16.0.0, SVG Export Plug-In . SVG Version: 6.00 Build 0)  -->
<!DOCTYPE svg PUBLIC "-//W3C//DTD SVG 1.1//EN" "http://www.w3.org/Graphics/SVG/1.1/DTD/svg11.dtd">
<svg version="1.1" id="Layer_1" xmlns="http://www.w3.org/2000/svg" xmlns:xlink="http://www.w3.org/1999/xlink" x="0px" y="0px"
	 width="130px" height="120px" viewBox="0 0 130 120" enable-background="new 0 0 130 120" xml:space="preserve">
<g id="Your_Icon_1_">
	<path fill="#FFFFFF" d="M35.155,33.467v4.931c0,0.489,0.248,1.596,0.369,1.844c0.121,0.374,0.741,1.475,1.354,2.461
		c0.739,0.865,0.248,1.482,0.125,2.091c-0.245,0.619-0.366,1.603-0.366,2.22v6.901c0,0.371,0.366,0.489,0.737,0.489l-0.123,1.726
		c0.613,0,1.23-0.24,1.847-0.24c0.49-0.121,0.987-0.505,1.477-0.62c-0.248-0.494-0.614-0.983-1.107-1.227
		c-0.369-0.128-0.121-0.496-0.121-0.496c0.121-2.093,0.366-4.192,0.614-6.285c0,0,0-0.865,0.614-1.354
		c0.617-0.496,1.724-1.234,1.724-1.234s0.373-0.364,0.618-0.127c0.244,0.127,0.244,0.375,0.244,0.624
		c0.128,0.241,0.865,4.68,0.865,4.68s0.741,3.2,0.861,3.575c0.124,0.361,0.124,0.361,0.49,0.361c0.375,0.129,0.62,0,0.745,0.371
		c0.12,0.366,0.241,0.992,0.241,0.992l0.248,0.858c0.372-0.369,0.985,0,1.357-0.241c0.366-0.128,0.491-0.254,0.862-0.381
		c0-0.364-0.248-0.862-0.248-0.981c-0.125-0.363-0.496-0.363-0.614-0.489v-0.37c-0.248-1.36-0.492-2.837-0.868-4.313
		c0-1.474,0-2.956-0.117-4.559c0.117,0-0.124-2.711,1.723-3.696c1.601-0.737,2.219,0,3.448,0.249
		c1.357,0.247,5.054,1.233,10.842,1.233c5.789,0,6.406-0.743,7.511-0.496c0.739,0.249,1.359,1.236,2.098,1.974
		c0.736,0.859,0.736,1.602,0.736,1.972c0,0.37-0.492,2.96-0.611,3.445c-0.373,1.107-0.373,4.308-0.373,4.308
		c0.248,0.128,0.492,0.255,0.861,0.381c0,0.482,0,1.108,0.123,1.726c0.494,0.241,1.232,0.361,1.725,0.361s0.99-0.615,1.479-0.858
		c-0.122-0.616-0.738-1.845-0.987-2.219c-0.244-0.497-0.121-0.619-0.121-0.738c0,0,0-1.483,0.121-1.973
		c0-0.371,0.498-2.581,0.617-3.077c0.248-0.497,0.617-1.852,1.107-2.468c0.616-0.484,1.234-0.732,1.234-0.732
		c0.248,2.334,0.248,8.369,0.248,8.988c0,0.494,0.49,0.737,0.737,0.865c0.369,0.127,0.737,0.857,0.862,1.47h3.074
		c-0.116-0.86-0.488-2.208-0.488-2.208s-1.107-1.363-1.107-1.483c-0.127-0.121-0.127-0.489-0.127-0.615
		c0.127,0,0.495-5.54,0.495-5.789c0-0.247,0.245-1.972,0.739-2.589c0.488-0.609,1.473-0.986,1.971-1.229
		c0.367-0.246,2.339-1.481,2.834-2.217c0.611-0.738,1.723-2.342,2.461-3.946c0.62-1.476,1.848-4.433,2.217-5.909
		c0.372-1.483,1.113-4.185,1.113-5.044c0.121-0.872,0.37-3.333,0.37-3.83c0-0.496,0.248-1.227,0.612-1.474
		c0.494-0.249,1.111-0.371,1.234-0.371c0.245,0,0.615,0.249,1.11,0.371c0.614,0.119,3.569,1.106,3.938,1.227h0.744
		c0,0,0.366-0.121,0.49-0.121c0.121-0.128,0.617-0.738,0.986-0.857c0.368-0.129,1.23-0.249,1.353-0.618
		c0.126-0.247,0.371-0.375,0.371-0.737c0-0.249-0.245-1.482-0.493-1.973c-0.613-0.986-1.969-2.837-2.589-3.447
		c-0.493-0.743-2.586-3.085-3.2-3.567c-0.62-0.503-2.096-1.853-2.832-2.1c-0.618-0.248-1.354-0.617-2.342-0.864
		c-0.986-0.121-1.357,0-1.357,0s-0.366-1.114-0.615-1.477c-0.246-0.368-1.109-1.114-1.473-1.474
		c-0.498-0.369-1.115-0.617-1.484-0.369c-0.368,0.369-0.368,0.859-0.12,1.475c0.37,0.49,0.489,1.349,0.489,1.349
		s-3.57,2.1-4.433,2.716c-2.829,1.845-4.804,4.675-6.404,4.923c-1.601,0.248-2.461,0.129-3.573,0.129
		c-7.386-0.375-22.91-1.114-25.007-1.114c-2.22,0-4.309-0.128-5.54,0.254c-1.234,0.483-5.178,1.845-7.271,4.675
		c-2.094,2.716-3.326,5.667-3.199,8.008c0.24,2.334,0.858,3.079,0.982,3.575c0.123,0.49,0.741,1.227,0.741,2.71L35.155,33.467z"/>
</g>
<text transform="matrix(1 0 0 1 6.2769 85)"><tspan x="0" y="0" fill="#FFFFFF" font-family="'Marmelad-Regular'" font-size="30" letter-spacing="1">Solängs</tspan><tspan x="1.23" y="28" fill="#FFFFFF" font-family="'Marmelad-Regular'" font-size="30" letter-spacing="1">Fårgård</tspan></text>
</svg>
