<?xml version="1.0" encoding="utf-8"?>
<!-- Generator: Adobe Illustrator 16.0.0, SVG Export Plug-In . SVG Version: 6.00 Build 0)  -->
<!DOCTYPE svg PUBLIC "-//W3C//DTD SVG 1.1//EN" "http://www.w3.org/Graphics/SVG/1.1/DTD/svg11.dtd">
<svg version="1.1" id="Layer_1" xmlns="http://www.w3.org/2000/svg" xmlns:xlink="http://www.w3.org/1999/xlink" x="0px" y="0px"
	 width="55px" height="41.223px" viewBox="22.502 29.391 55 41.223" enable-background="new 22.502 29.391 55 41.223"
	 xml:space="preserve">
<g id="Captions">
</g>
<g id="Your_Icon">
	<path fill="#FFFFFF" d="M23.927,53.168v3.795c0,0.377,0.191,1.229,0.285,1.42c0.093,0.288,0.57,1.135,1.042,1.895
		c0.568,0.666,0.191,1.141,0.096,1.609c-0.188,0.477-0.281,1.234-0.281,1.709v5.312c0,0.285,0.281,0.377,0.567,0.377l-0.095,1.328
		c0.473,0,0.947-0.186,1.422-0.186c0.377-0.094,0.759-0.389,1.136-0.477c-0.191-0.381-0.473-0.758-0.853-0.944
		c-0.284-0.099-0.093-0.382-0.093-0.382c0.093-1.611,0.282-3.227,0.473-4.838c0,0,0-0.666,0.473-1.042
		c0.475-0.382,1.327-0.95,1.327-0.95s0.287-0.279,0.476-0.098c0.188,0.098,0.188,0.288,0.188,0.48
		c0.098,0.186,0.666,3.603,0.666,3.603s0.57,2.463,0.663,2.752c0.096,0.278,0.096,0.278,0.377,0.278
		c0.289,0.099,0.478,0,0.573,0.285c0.093,0.283,0.186,0.764,0.186,0.764l0.191,0.661c0.287-0.284,0.758,0,1.045-0.186
		c0.282-0.099,0.377-0.196,0.664-0.294c0-0.279-0.191-0.662-0.191-0.755c-0.096-0.279-0.382-0.279-0.473-0.377v-0.284
		c-0.191-1.048-0.379-2.184-0.668-3.32c0-1.135,0-2.275-0.09-3.51c0.09,0-0.096-2.086,1.327-2.845c1.231-0.567,1.707,0,2.654,0.191
		c1.045,0.19,3.89,0.949,8.346,0.949s4.93-0.572,5.781-0.382c0.568,0.191,1.046,0.951,1.614,1.519
		c0.567,0.661,0.567,1.233,0.567,1.519c0,0.284-0.38,2.277-0.472,2.652c-0.287,0.852-0.287,3.314-0.287,3.314
		c0.191,0.099,0.379,0.196,0.664,0.294c0,0.372,0,0.853,0.095,1.328c0.38,0.186,0.947,0.278,1.327,0.278
		c0.379,0,0.762-0.475,1.139-0.661c-0.094-0.475-0.568-1.42-0.76-1.708c-0.188-0.383-0.093-0.476-0.093-0.568
		c0,0,0-1.141,0.093-1.518c0-0.285,0.383-1.987,0.475-2.369c0.191-0.383,0.476-1.426,0.853-1.9c0.475-0.372,0.95-0.562,0.95-0.562
		c0.191,1.797,0.191,6.442,0.191,6.918c0,0.381,0.377,0.567,0.567,0.666c0.284,0.098,0.567,0.66,0.663,1.131h2.367
		c-0.09-0.661-0.377-1.699-0.377-1.699s-0.852-1.049-0.852-1.141c-0.099-0.094-0.099-0.377-0.099-0.475
		c0.099,0,0.382-4.265,0.382-4.456c0-0.19,0.188-1.518,0.568-1.993c0.377-0.469,1.135-0.759,1.518-0.945
		c0.283-0.189,1.801-1.141,2.182-1.707c0.471-0.568,1.326-1.803,1.894-3.037c0.478-1.136,1.423-3.412,1.707-4.548
		c0.286-1.141,0.857-3.222,0.857-3.883c0.093-0.671,0.284-2.566,0.284-2.948c0-0.382,0.191-0.945,0.472-1.136
		c0.38-0.191,0.855-0.285,0.95-0.285c0.188,0,0.473,0.192,0.854,0.285c0.473,0.093,2.747,0.852,3.032,0.945h0.572
		c0,0,0.281-0.093,0.377-0.093c0.093-0.099,0.475-0.568,0.759-0.661c0.284-0.099,0.948-0.191,1.042-0.475
		c0.097-0.191,0.285-0.289,0.285-0.568c0-0.191-0.188-1.141-0.379-1.518c-0.473-0.759-1.516-2.184-1.993-2.653
		c-0.38-0.573-1.99-2.375-2.463-2.747c-0.478-0.387-1.614-1.425-2.181-1.616c-0.476-0.191-1.043-0.475-1.803-0.666
		c-0.759-0.093-1.045,0-1.045,0s-0.281-0.857-0.473-1.136c-0.19-0.284-0.854-0.857-1.135-1.136
		c-0.383-0.284-0.857-0.475-1.142-0.284c-0.284,0.284-0.284,0.661-0.093,1.136c0.285,0.377,0.377,1.038,0.377,1.038
		s-2.748,1.616-3.412,2.091c-2.179,1.419-3.697,3.599-4.93,3.79c-1.232,0.191-1.895,0.099-2.75,0.099
		c-5.686-0.289-17.635-0.857-19.249-0.857c-1.709,0-3.317-0.098-4.265,0.196c-0.95,0.372-3.986,1.419-5.596,3.598
		c-1.611,2.091-2.561,4.362-2.463,6.164c0.186,1.797,0.66,2.37,0.756,2.752c0.095,0.377,0.57,0.945,0.57,2.086L23.927,53.168z"/>
</g>
</svg>
