<?xml version="1.0" encoding="utf-8"?>
<!-- Generator: Adobe Illustrator 16.0.0, SVG Export Plug-In . SVG Version: 6.00 Build 0)  -->
<!DOCTYPE svg PUBLIC "-//W3C//DTD SVG 1.1//EN" "http://www.w3.org/Graphics/SVG/1.1/DTD/svg11.dtd">
<svg version="1.1" id="Layer_1" xmlns="http://www.w3.org/2000/svg" xmlns:xlink="http://www.w3.org/1999/xlink" x="0px" y="0px"
	 width="100px" height="100px" viewBox="0 0 100 100" enable-background="new 0 0 100 100" xml:space="preserve">
<g id="Captions">
</g>
<g id="Your_Icon">
	<path fill="#FFFFFF" d="M2.593,55.759v6.898c0,0.686,0.348,2.233,0.517,2.582c0.169,0.524,1.037,2.063,1.896,3.444
		c1.033,1.211,0.347,2.074,0.173,2.928c-0.342,0.865-0.511,2.244-0.511,3.107v9.659c0,0.517,0.511,0.685,1.032,0.685l-0.173,2.414
		c0.859,0,1.722-0.338,2.586-0.338c0.685-0.17,1.38-0.705,2.065-0.865c-0.347-0.693-0.859-1.379-1.549-1.717
		c-0.516-0.179-0.169-0.695-0.169-0.695c0.169-2.928,0.512-5.866,0.859-8.795c0,0,0-1.211,0.859-1.896
		c0.864-0.694,2.413-1.728,2.413-1.728s0.521-0.508,0.864-0.178c0.342,0.178,0.342,0.524,0.342,0.873
		c0.179,0.338,1.211,6.551,1.211,6.551s1.037,4.479,1.206,5.004C16.388,84.2,16.388,84.2,16.9,84.2c0.525,0.179,0.868,0,1.042,0.517
		c0.169,0.516,0.338,1.389,0.338,1.389l0.348,1.203c0.521-0.518,1.379,0,1.9-0.338c0.512-0.18,0.686-0.357,1.206-0.535
		c0-0.508-0.347-1.203-0.347-1.371c-0.174-0.508-0.695-0.508-0.859-0.686v-0.518c-0.348-1.904-0.689-3.971-1.216-6.035
		c0-2.064,0-4.139-0.164-6.383c0.164,0-0.174-3.793,2.412-5.172c2.239-1.032,3.103,0,4.825,0.348
		c1.9,0.347,7.073,1.727,15.174,1.727s8.964-1.041,10.511-0.693c1.033,0.348,1.902,1.728,2.935,2.76
		c1.032,1.201,1.032,2.243,1.032,2.76c0,0.518-0.689,4.141-0.857,4.824c-0.521,1.549-0.521,6.025-0.521,6.025
		c0.347,0.18,0.689,0.357,1.206,0.535c0,0.676,0,1.549,0.173,2.414c0.689,0.338,1.723,0.506,2.413,0.506
		c0.688,0,1.385-0.863,2.069-1.201c-0.17-0.863-1.033-2.582-1.381-3.106c-0.343-0.694-0.168-0.864-0.168-1.032
		c0,0,0-2.074,0.168-2.761c0-0.517,0.695-3.612,0.864-4.308c0.347-0.695,0.863-2.592,1.549-3.455
		c0.863-0.676,1.728-1.022,1.728-1.022c0.348,3.267,0.348,11.714,0.348,12.578c0,0.694,0.686,1.032,1.032,1.211
		c0.517,0.179,1.032,1.201,1.206,2.056h4.304c-0.164-1.201-0.685-3.088-0.685-3.088s-1.549-1.906-1.549-2.074
		c-0.18-0.17-0.18-0.687-0.18-0.863c0.18,0,0.694-7.754,0.694-8.102s0.343-2.76,1.032-3.623c0.686-0.854,2.064-1.381,2.761-1.719
		c0.516-0.347,3.274-2.074,3.966-3.105c0.857-1.033,2.412-3.276,3.443-5.521c0.869-2.065,2.588-6.204,3.104-8.27
		c0.521-2.075,1.559-5.857,1.559-7.06c0.17-1.22,0.518-4.665,0.518-5.359c0-0.695,0.348-1.718,0.857-2.065
		c0.69-0.347,1.555-0.517,1.729-0.517c0.342,0,0.857,0.348,1.553,0.517c0.859,0.169,4.994,1.549,5.512,1.718h1.041
		c0,0,0.513-0.169,0.686-0.169c0.169-0.179,0.864-1.032,1.38-1.201c0.517-0.179,1.724-0.348,1.896-0.864
		c0.175-0.347,0.518-0.525,0.518-1.032c0-0.347-0.343-2.074-0.689-2.76c-0.858-1.38-2.756-3.971-3.623-4.824
		c-0.69-1.042-3.619-4.318-4.479-4.994c-0.868-0.704-2.934-2.591-3.966-2.938c-0.863-0.347-1.896-0.863-3.276-1.21
		c-1.38-0.169-1.9,0-1.9,0s-0.512-1.558-0.858-2.065c-0.347-0.517-1.554-1.559-2.063-2.065c-0.695-0.516-1.56-0.863-2.076-0.516
		c-0.516,0.516-0.516,1.202-0.168,2.065c0.517,0.686,0.686,1.887,0.686,1.887s-4.998,2.938-6.205,3.802
		c-3.961,2.581-6.721,6.543-8.964,6.89c-2.239,0.348-3.444,0.179-4.999,0.179c-10.338-0.525-32.064-1.559-34.998-1.559
		c-3.107,0-6.031-0.178-7.754,0.357c-1.727,0.676-7.247,2.581-10.175,6.542c-2.929,3.802-4.656,7.932-4.478,11.208
		c0.338,3.267,1.201,4.309,1.375,5.003c0.174,0.686,1.037,1.718,1.037,3.793L2.593,55.759z"/>
</g>
</svg>
